<?xml version="1.0" encoding="utf-8"?>
<!-- Generator: Adobe Illustrator 28.1.0, SVG Export Plug-In . SVG Version: 6.00 Build 0)  -->
<svg version="1.1" id="Layer_1" xmlns="http://www.w3.org/2000/svg" xmlns:xlink="http://www.w3.org/1999/xlink" x="0px" y="0px"
	 viewBox="0 0 1313.5 1778.2" style="enable-background:new 0 0 1313.5 1778.2;" xml:space="preserve">
<style type="text/css">
	.st0{fill:#00ADEE;}
	.st1{fill:#3D3D3D;}
	.st2{fill:#FFFFFF;}
	.st3{fill:#2B2B2B;}
</style>
<g>
	<g>
		<path class="st0" d="M138.3,1576.6c13.6,6.2,24.1,14.9,31.4,26.2c7.3,11.3,11,24.7,11,40.2c0,15.3-3.7,28.6-11,40
			c-7.3,11.4-17.8,20.1-31.4,26.2c-13.6,6.1-29.6,9.1-48.1,9.1h-42v57.5H0v-208.4h90.2C108.7,1567.4,124.7,1570.5,138.3,1576.6z
			 M120.6,1669.7c7.5-6.2,11.3-15.1,11.3-26.6c0-11.7-3.8-20.7-11.3-26.9c-7.5-6.2-18.6-9.4-33-9.4H48.2v72.3h39.3
			C102,1679,113,1675.9,120.6,1669.7z"/>
		<path class="st0" d="M220.9,1763.7c-10.1-9.6-15.2-23.3-15.2-40.9v-167.9h46.4v165.2c0,6.8,1.7,12,5.2,15.6
			c3.5,3.7,8.4,5.5,14.7,5.5c2.4,0,4.8-0.3,7.3-0.9s4.4-1.3,5.8-2.1l2.1,36c-7.7,2.6-15.8,3.9-24.1,3.9
			C245.1,1778.2,231,1773.4,220.9,1763.7z"/>
		<path class="st0" d="M460.8,1615.6v160.1h-44.4v-18.5c-11.5,13.9-28.2,20.8-50,20.8c-15.1,0-28.7-3.4-40.9-10.1
			c-12.2-6.7-21.8-16.4-28.7-28.9c-7-12.5-10.4-27-10.4-43.5c0-16.5,3.5-31,10.4-43.5c6.9-12.5,16.5-22.1,28.7-28.9
			c12.2-6.7,25.8-10.1,40.9-10.1c20.4,0,36.4,6.4,47.9,19.3v-17H460.8z M403.6,1728c7.7-8,11.6-18.8,11.6-32.3
			c0-13.5-3.9-24.3-11.6-32.3c-7.7-8-17.5-12.1-29.2-12.1c-11.9,0-21.7,4-29.5,12.1c-7.7,8-11.6,18.8-11.6,32.3
			c0,13.5,3.9,24.3,11.6,32.3c7.7,8,17.6,12.1,29.5,12.1C386.2,1740.1,395.9,1736.1,403.6,1728z"/>
		<path class="st0" d="M591.2,1768.1c-4.6,3.4-10.2,5.9-16.8,7.6c-6.6,1.7-13.5,2.5-20.7,2.5c-19.3,0-34-4.9-44.4-14.6
			c-10.3-9.7-15.5-24-15.5-42.9v-140.5h46.4v39h39.6v35.7h-39.6v65.2c0,6.8,1.7,12,5.1,15.6c3.4,3.7,8.2,5.5,14.6,5.5
			c7.1,0,13.5-2,19-6L591.2,1768.1z"/>
		<path class="st0" d="M653.7,1619.2h41.1v35.7h-39.9v120.9h-46.4v-163.7c0-18.3,5.4-32.7,16.2-43.5c10.8-10.7,26-16.1,45.7-16.1
			c6.9,0,13.5,0.7,19.8,2.2c6.2,1.5,11.5,3.6,15.6,6.4l-12.2,33.6c-5.4-3.8-11.6-5.7-18.8-5.7c-14.1,0-21.1,7.7-21.1,23.2V1619.2z"
			/>
		<path class="st0" d="M737.8,1767.6c-13.4-7-23.9-16.8-31.4-29.3c-7.5-12.5-11.3-26.7-11.3-42.6c0-15.9,3.8-30.1,11.3-42.6
			c7.5-12.5,18-22.3,31.4-29.3c13.4-7,28.5-10.6,45.4-10.6c16.9,0,31.9,3.5,45.2,10.6c13.3,7,23.7,16.8,31.3,29.3
			c7.5,12.5,11.3,26.7,11.3,42.6c0,15.9-3.8,30.1-11.3,42.6s-18,22.3-31.3,29.3c-13.3,7-28.4,10.6-45.2,10.6
			C766.3,1778.2,751.2,1774.7,737.8,1767.6z M812.5,1728c7.6-8,11.5-18.8,11.5-32.3c0-13.5-3.8-24.3-11.5-32.3
			c-7.6-8-17.4-12.1-29.3-12.1c-11.9,0-21.7,4-29.5,12.1c-7.7,8-11.6,18.8-11.6,32.3c0,13.5,3.9,24.3,11.6,32.3
			c7.7,8,17.6,12.1,29.5,12.1C795.1,1740.1,804.9,1736.1,812.5,1728z"/>
		<path class="st0" d="M959.9,1619.2c9.4-4,20.3-6,32.6-6v42.9c-5.2-0.4-8.6-0.6-10.4-0.6c-13.3,0-23.7,3.7-31.3,11.2
			c-7.5,7.4-11.3,18.6-11.3,33.5v75.6H893v-160.1h44.4v21.1C942.9,1629,950.4,1623.2,959.9,1619.2z"/>
		<path class="st0" d="M1264.1,1631c11.8,11.8,17.7,29.5,17.7,53.1v91.7h-46.4v-84.5c0-12.7-2.6-22.2-7.9-28.4
			c-5.3-6.2-12.8-9.4-22.5-9.4c-10.9,0-19.5,3.5-25.9,10.6c-6.3,7-9.5,17.5-9.5,31.4v80.4h-46.4v-84.5c0-25.2-10.1-37.8-30.4-37.8
			c-10.7,0-19.2,3.5-25.6,10.6c-6.4,7-9.5,17.5-9.5,31.4v80.4h-46.4v-160.1h44.4v18.5c5.9-6.7,13.2-11.9,21.9-15.5
			c8.6-3.6,18.1-5.4,28.4-5.4c11.3,0,21.5,2.2,30.7,6.7c9.1,4.5,16.5,11,22,19.5c6.5-8.3,14.8-14.8,24.9-19.3
			c10-4.6,21-6.8,32.9-6.8C1236.3,1613.3,1252.3,1619.2,1264.1,1631z"/>
	</g>
	<g>
		<g>
			<path class="st0" d="M445.9,283.9c0,3.2,0.1,6.5,0.2,9.7c-0.1,0.5-0.3,1-0.4,1.5c-0.5,0.1-1,0.1-1.5,0.2
				c-3.2-0.1-6.5-0.2-9.7-0.2c-91.3,0-182.6,0-273.9,0h0c-2.3,0-4,0.1-5.3,0.1c-4.1,0-3.8-1-3.8-9.3V9c0-6.6-0.4-8.4,2-8.8h290.6
				c2.3,0.4,1.8,2.2,1.8,8.4C445.9,100.3,445.9,192.1,445.9,283.9z"/>
			<g>
				<path class="st1" d="M1310.7,635.5c-13.4,131.5-65.3,245.5-155.8,341.7c-84.7,89.9-188,147-309.3,171.4
					c-36.3,7.3-72.9,10.7-109.9,10.6c-41.9-0.2-83.8,0-125.7,0c-1.7,0-3.5,0-5.2,0c-2.2,0.1-3.2-1-3.1-3.1c0.1-1.7,0-3.5,0-5.2
					c0-92.8,0-185.6,0-278.4c0-9.9-0.7-8.3,8.4-8.4c41.7,0,83.3,0.1,125,0c67.6-0.2,127.8-21.7,179.8-64.7
					c55.8-46.1,90.3-105.2,100.8-177.1c13-88.9-11.3-167.4-71.2-234.2c-41.6-46.3-93.7-75.2-154.7-87.6c-9.3-1.9-18.7-3.3-28.2-4.2
					l-227.1,2.5l-0.1-6.7c0-1.2,0-2.3-0.1-3.5c0-1.7-0.1-3.4-0.1-4.5v-98.4c0-59,0-118,0-177V7c0-2.3,0-4.6-0.1-6.9h208.7
					c1.1-0.2,8.6-0.1,11.2,0l7.6,0.2C833.7,3.5,903,19.7,969.1,49.6c123.3,55.9,216.4,144.2,279.5,263.9
					c30.6,58,50,119.7,59.1,184.7C1314.2,543.9,1315.3,589.6,1310.7,635.5z"/>
			</g>
			<g>
				<path class="st1" d="M445.4,383.7v1076.8H150.7V383.3c1.5,0.1,3,0.1,4.6,0.1c1.3,0,2.7,0,4.4-0.1c0.3,0,0.6,0,0.9,0
					c58.8,0,117.7,0,176.6,0h97.3c0.6,0,2.2,0,3.5,0.1c1.3,0,2.5,0.1,3.8,0.1L445.4,383.7z"/>
			</g>
		</g>
	</g>
	<g>
		<path class="st2" d="M282.4,546.3v-65.9h15.3v65.9H282.4z"/>
		<path class="st2" d="M259.7,635.8v-65.9h12.6l38.9,47.5h-6.1v-47.5h15.1v65.9h-12.5l-39-47.5h6.1v47.5H259.7z"/>
		<path class="st2" d="M294.8,726.5c-5.1,0-9.8-0.8-14.2-2.5c-4.4-1.7-8.1-4-11.3-7.1c-3.2-3.1-5.7-6.7-7.5-10.8
			c-1.8-4.1-2.7-8.7-2.7-13.7s0.9-9.5,2.7-13.7c1.8-4.1,4.3-7.8,7.5-10.8c3.2-3.1,7-5.4,11.4-7.1c4.3-1.7,9.1-2.5,14.2-2.5
			c5.7,0,10.9,1,15.5,3c4.6,2,8.5,4.9,11.6,8.7l-9.8,9c-2.3-2.6-4.8-4.5-7.5-5.8c-2.8-1.3-5.8-1.9-9-1.9c-3.1,0-5.9,0.5-8.5,1.5
			c-2.6,1-4.8,2.4-6.7,4.3c-1.9,1.9-3.3,4.1-4.4,6.7c-1,2.6-1.6,5.4-1.6,8.6c0,3.1,0.5,6,1.6,8.6s2.5,4.8,4.4,6.7
			c1.9,1.9,4.1,3.3,6.7,4.3c2.6,1,5.4,1.5,8.5,1.5c3.3,0,6.3-0.6,9-1.9c2.8-1.3,5.3-3.2,7.5-5.9l9.8,9c-3.1,3.8-7,6.8-11.6,8.8
			C305.8,725.5,300.6,726.5,294.8,726.5z"/>
		<path class="st2" d="M263.2,815V749h28.5c5.9,0,11,1,15.3,2.9c4.3,1.9,7.6,4.7,9.9,8.2c2.3,3.6,3.5,7.9,3.5,12.8
			c0,4.9-1.2,9.1-3.5,12.7c-2.3,3.5-5.6,6.3-9.9,8.1c-4.3,1.9-9.4,2.8-15.3,2.8h-20.1l6.8-6.7V815H263.2z M278.5,791.6l-6.8-7.2
			h19.2c4.7,0,8.2-1,10.5-3.1c2.3-2,3.5-4.9,3.5-8.4c0-3.6-1.2-6.5-3.5-8.5c-2.3-2-5.8-3-10.5-3h-19.2l6.8-7.3V791.6z M305.1,815
			L288.6,791h16.3l16.7,23.9H305.1z"/>
		<path class="st2" d="M281.4,892.3h35.9v12.2h-51v-65.9H316v12.2h-34.7V892.3z M280.2,865.2H312V877h-31.7V865.2z"/>
		<path class="st2" d="M258.9,994.1v-65.9h30c7.2,0,13.5,1.4,18.9,4.1c5.5,2.7,9.7,6.5,12.8,11.4c3.1,4.9,4.6,10.7,4.6,17.4
			c0,6.7-1.5,12.4-4.6,17.4s-7.3,8.8-12.8,11.5c-5.5,2.7-11.8,4.1-18.9,4.1H258.9z M274.2,981.6h13.9c4.4,0,8.2-0.8,11.4-2.5
			c3.2-1.7,5.7-4,7.5-7.1c1.8-3.1,2.7-6.7,2.7-10.8c0-4.2-0.9-7.8-2.7-10.9c-1.8-3-4.3-5.4-7.5-7.1c-3.2-1.7-7-2.5-11.4-2.5h-13.9
			V981.6z"/>
		<path class="st2" d="M282.4,1083.7v-65.9h15.3v65.9H282.4z"/>
		<path class="st2" d="M261.8,1173.2v-65.9H294c8.3,0,14.5,1.6,18.7,4.7c4.2,3.1,6.3,7.3,6.3,12.4c0,3.5-0.9,6.4-2.5,9
			c-1.7,2.5-4,4.5-7,5.9c-3,1.4-6.3,2.1-10.2,2.1l1.8-3.9c4.1,0,7.8,0.7,11,2c3.2,1.4,5.7,3.3,7.5,6c1.8,2.6,2.7,5.9,2.7,9.7
			c0,5.6-2.2,10.1-6.7,13.2c-4.5,3.2-11,4.8-19.7,4.8H261.8z M276.9,1161.8h17.8c4,0,7-0.6,9-1.9c2-1.3,3.1-3.3,3.1-6.2
			c0-2.8-1-4.8-3.1-6.2c-2-1.4-5-2-9-2h-18.9v-11.1h16.3c3.7,0,6.5-0.6,8.5-1.9c2-1.3,3-3.2,3-5.9c0-2.6-1-4.5-3-5.8
			c-2-1.3-4.8-1.9-8.5-1.9h-15.2V1161.8z"/>
		<path class="st2" d="M269.4,1262.8v-65.9h15.3v53.5h33.1v12.4H269.4z"/>
		<path class="st2" d="M281.4,1340.1h35.9v12.2h-51v-65.9H316v12.2h-34.7V1340.1z M280.2,1313H312v11.9h-31.7V1313z"/>
	</g>
</g>
</svg>
